<mxfile host="65bd71144e">
    <diagram id="YpSYsorLDXaplvPnaPJR" name="Page-1">
        <mxGraphModel dx="802" dy="563" grid="1" gridSize="10" guides="1" tooltips="1" connect="1" arrows="1" fold="1" page="1" pageScale="1" pageWidth="850" pageHeight="1100" math="0" shadow="0">
            <root>
                <mxCell id="0"/>
                <mxCell id="1" parent="0"/>
                <mxCell id="2" value="Saldo = 0" style="rounded=0;whiteSpace=wrap;html=1;verticalAlign=middle;align=center;" parent="1" vertex="1">
                    <mxGeometry x="80" y="90" width="310" height="40" as="geometry"/>
                </mxCell>
                <mxCell id="3" value="Snicker uit vending machine" style="text;html=1;align=center;verticalAlign=middle;whiteSpace=wrap;rounded=0;" parent="1" vertex="1">
                    <mxGeometry x="80" y="40" width="200" height="30" as="geometry"/>
                </mxCell>
                <mxCell id="4" value="Keuze?&amp;nbsp;" style="rounded=0;whiteSpace=wrap;html=1;verticalAlign=top;align=center;" parent="1" vertex="1">
                    <mxGeometry x="80" y="130" width="310" height="50" as="geometry"/>
                </mxCell>
                <mxCell id="6" value="ID = A1" style="rounded=0;whiteSpace=wrap;html=1;verticalAlign=middle;align=center;" parent="1" vertex="1">
                    <mxGeometry x="80" y="180" width="150" height="50" as="geometry"/>
                </mxCell>
                <mxCell id="12" value="Zolang geld &amp;lt; 1.50&lt;div&gt;&lt;br&gt;&lt;/div&gt;" style="rounded=0;whiteSpace=wrap;html=1;verticalAlign=top;align=left;" parent="1" vertex="1">
                    <mxGeometry x="80" y="230" width="310" height="100" as="geometry"/>
                </mxCell>
                <mxCell id="13" value="&lt;blockquote style=&quot;margin: 0 0 0 40px; border: none; padding: 0px;&quot;&gt;- Display: &#39;&quot;Saldo te laag&quot;&lt;/blockquote&gt;&lt;blockquote style=&quot;margin: 0 0 0 40px; border: none; padding: 0px;&quot;&gt;&lt;div&gt;- geld input = y&lt;/div&gt;&lt;div&gt;- Saldo = saldo + y&lt;/div&gt;&lt;/blockquote&gt;" style="rounded=0;whiteSpace=wrap;html=1;align=left;" parent="1" vertex="1">
                    <mxGeometry x="150" y="260" width="240" height="70" as="geometry"/>
                </mxCell>
                <mxCell id="27" style="html=1;exitX=0;exitY=0;exitDx=0;exitDy=0;entryX=0.5;entryY=1;entryDx=0;entryDy=0;startArrow=none;startFill=0;endArrow=none;endFill=0;" edge="1" parent="1" source="4" target="4">
                    <mxGeometry relative="1" as="geometry"/>
                </mxCell>
                <mxCell id="28" style="html=1;exitX=1;exitY=0;exitDx=0;exitDy=0;entryX=0.5;entryY=1;entryDx=0;entryDy=0;startArrow=none;startFill=0;endArrow=none;endFill=0;" edge="1" parent="1" source="4" target="4">
                    <mxGeometry relative="1" as="geometry"/>
                </mxCell>
                <mxCell id="29" value="Snicker" style="text;html=1;align=center;verticalAlign=middle;whiteSpace=wrap;rounded=0;" vertex="1" parent="1">
                    <mxGeometry x="90" y="150" width="60" height="30" as="geometry"/>
                </mxCell>
                <mxCell id="30" value="mars" style="text;html=1;align=center;verticalAlign=middle;whiteSpace=wrap;rounded=0;" vertex="1" parent="1">
                    <mxGeometry x="320" y="150" width="60" height="30" as="geometry"/>
                </mxCell>
                <mxCell id="35" value="ID = A2" style="rounded=0;whiteSpace=wrap;html=1;verticalAlign=middle;align=center;" vertex="1" parent="1">
                    <mxGeometry x="230" y="180" width="160" height="50" as="geometry"/>
                </mxCell>
                <mxCell id="49" value="geld terug = saldo - 1.50" style="rounded=0;whiteSpace=wrap;html=1;verticalAlign=middle;align=center;" vertex="1" parent="1">
                    <mxGeometry x="80" y="330" width="310" height="40" as="geometry"/>
                </mxCell>
                <mxCell id="50" value="Geeft &#39;geld terug&#39; terug" style="rounded=0;whiteSpace=wrap;html=1;verticalAlign=middle;align=center;" vertex="1" parent="1">
                    <mxGeometry x="80" y="370" width="310" height="40" as="geometry"/>
                </mxCell>
                <mxCell id="53" value="" style="edgeStyle=none;html=1;" edge="1" parent="1" source="51" target="52">
                    <mxGeometry relative="1" as="geometry"/>
                </mxCell>
                <mxCell id="51" value="Draai spiraal met label ID 360 graden" style="rounded=0;whiteSpace=wrap;html=1;verticalAlign=middle;align=center;" vertex="1" parent="1">
                    <mxGeometry x="80" y="410" width="310" height="40" as="geometry"/>
                </mxCell>
                <mxCell id="52" value="Snicker valt in uitgifte lade" style="rounded=0;whiteSpace=wrap;html=1;verticalAlign=middle;align=center;" vertex="1" parent="1">
                    <mxGeometry x="80" y="450" width="310" height="40" as="geometry"/>
                </mxCell>
            </root>
        </mxGraphModel>
    </diagram>
</mxfile>